<?xml version="1.0" encoding="UTF-8"?>
<svg width="145px" height="86px" viewBox="0 0 145 86" version="1.1" xmlns="http://www.w3.org/2000/svg" xmlns:xlink="http://www.w3.org/1999/xlink">
    <!-- Generator: Sketch 52.1 (67048) - http://www.bohemiancoding.com/sketch -->
    <title>Group 2</title>
    <desc>Created with Sketch.</desc>
    <defs>
        <rect id="path-1" x="0" y="0" width="145" height="86" rx="8"></rect>
    </defs>
    <g id="Page-1" stroke="none" stroke-width="1" fill="none" fill-rule="evenodd" opacity="0.57484654">
        <g id="Host-a-debate-(scroll-down)" transform="translate(-229.000000, -472.000000)">
            <g id="Group-42-Copy" transform="translate(20.000000, -94.000000)">
                <g id="Group-2" transform="translate(209.000000, 566.000000)">
                    <mask id="mask-2" fill="white">
                        <use xlink:href="#path-1"></use>
                    </mask>
                    <use id="Mask" fill="#F5F8FC" xlink:href="#path-1"></use>
                    <g opacity="0.239885603" mask="url(#mask-2)">
                        <g transform="translate(0.000000, -32.000000)">
                            <path d="M75.5231399,80.0608855 C71.503778,67.5344974 63.5436425,59 54.3760631,59 C45.2080294,59 37.247894,67.5344974 33.2289863,80.0608855 L33.1994589,80.0608855 L10,146.923681 C13.0313293,148.867438 16.6182283,150 20.4577001,150 L100,150 L75.552213,80.0608855 L75.5231399,80.0608855 Z" id="Fill-6" fill="#0A2240"></path>
                            <path d="M130.308438,0 L19.6915623,0 C8.86122589,0 0,8.84538177 0,19.6563533 L0,91.9108118 L22.877036,45.5851765 L22.9199719,45.5851765 C28.7884786,32.6162054 40.4108442,23.7794866 53.7963197,23.7794866 C67.1817952,23.7794866 78.8041608,32.6162054 84.6726675,45.5851765 L84.7156034,45.5851765 L135.601421,149 C143.881643,146.676947 150,139.057153 150,130.075898 L150,19.6563533 C150,8.84538177 141.138774,0 130.308438,0" id="Fill-8" fill="#0A2240"></path>
                            <path d="M84.9212632,45.8139464 C79.0355267,32.8396086 67.3794964,24 53.9542636,24 C40.5294888,24 28.8730004,32.8396086 22.987264,45.8139464 L22.9442021,45.8139464 L0,92.1566664 L0,130.336204 C0,137.296598 3.68408253,143.437799 9.20333474,146.934873 L32.5992286,80.3153311 L32.6285474,80.3153311 C36.6818627,67.8345153 44.7092413,59.3310672 53.9542636,59.3310672 C63.199744,59.3310672 71.2266644,67.8345153 75.2804379,80.3153311 L75.3097566,80.3153311 L99.9636076,150 L130.691018,150 C132.528936,150 134.308675,149.74138 136,149.267927 L84.9643251,45.8139464 L84.9212632,45.8139464 Z" id="Fill-10" fill="#FEFEFE"></path>
                            <polygon id="Fill-18" fill="#FEFEFE" points="113 88.7986062 124.736841 113 128 105.201394 116.263159 81"></polygon>
                            <path d="M144.919332,59.8847834 C144.222479,54.3155585 139.213731,50.3742537 133.732118,51.082245 C130.245587,51.5327849 127.412923,53.7579004 125.988446,56.7493934 L125.946815,56.7282456 L119,73.5531528 L130.697185,98 L143.975413,65.839266 L143.89713,65.7997288 C144.787202,64.0384855 145.183594,61.9968042 144.919332,59.8847834" id="Fill-20" fill="#FEFEFE"></path>
                        </g>
                    </g>
                </g>
            </g>
        </g>
    </g>
</svg>